<svg width="17" height="17" viewBox="0 0 17 17" fill="none" xmlns="http://www.w3.org/2000/svg">
<rect width="17" height="17" fill="white"/>
<path d="M8.25 10.125C6.17893 10.125 4.5 8.44607 4.5 6.375V2.90278C4.5 2.64412 4.5 2.5148 4.53769 2.41124C4.60088 2.23763 4.73763 2.10088 4.91124 2.03769C5.0148 2 5.14412 2 5.40278 2H11.0972C11.3559 2 11.4852 2 11.5888 2.03769C11.7624 2.10088 11.8991 2.23763 11.9623 2.41124C12 2.5148 12 2.64412 12 2.90278V6.375C12 8.44607 10.3211 10.125 8.25 10.125ZM8.25 10.125V12M12 3.25H13.5625C13.8537 3.25 13.9993 3.25 14.1142 3.29758C14.2673 3.36101 14.389 3.48268 14.4524 3.63582C14.5 3.75068 14.5 3.89629 14.5 4.1875V4.5C14.5 5.08123 14.5 5.37185 14.4361 5.61029C14.2627 6.25733 13.7573 6.76273 13.1103 6.93611C12.8718 7 12.5812 7 12 7M4.5 3.25H2.9375C2.64629 3.25 2.50068 3.25 2.38582 3.29758C2.23268 3.36101 2.11101 3.48268 2.04758 3.63582C2 3.75068 2 3.89629 2 4.1875V4.5C2 5.08123 2 5.37185 2.06389 5.61029C2.23726 6.25733 2.74267 6.76273 3.38971 6.93611C3.62815 7 3.91877 7 4.5 7M5.40278 14.5H11.0972C11.2506 14.5 11.375 14.3756 11.375 14.2222C11.375 12.9949 10.3801 12 9.15278 12H7.34722C6.11992 12 5.125 12.9949 5.125 14.2222C5.125 14.3756 5.24937 14.5 5.40278 14.5Z" stroke="black" stroke-opacity="0.5" stroke-width="1.25" stroke-linecap="round" stroke-linejoin="round"/>
</svg>
